<?xml version="1.0" encoding="UTF-8"?>
<!DOCTYPE svg PUBLIC "-//W3C//DTD SVG 1.1//EN" "http://www.w3.org/Graphics/SVG/1.1/DTD/svg11.dtd">
<!-- Creator: CorelDRAW 2019 (64-Bit) -->
<svg xmlns="http://www.w3.org/2000/svg" xml:space="preserve" width="709px" height="630px" version="1.1" style="shape-rendering:geometricPrecision; text-rendering:geometricPrecision; image-rendering:optimizeQuality; fill-rule:evenodd; clip-rule:evenodd"
viewBox="0 0 709 630.22"
 xmlns:xlink="http://www.w3.org/1999/xlink">
 <defs>
  <style type="text/css">
   <![CDATA[
    .fil1 {fill:black}
    .fil0 {fill:#F7DF1E}
   ]]>
  </style>
 </defs>
 <g id="Capa_x0020_1">
  <metadata id="CorelCorpID_0Corel-Layer"/>
  <rect class="fil0" x="87.65" y="46.82" width="523.87" height="523.87"/>
  <g id="_2387614699792">
   <path class="fil1" d="M432.9 494.5l-1.1 1.58 -1.18 1.53 -2.69 1.25 -0.86 1.87 -2.88 1.19 -0.86 1.88 -2.74 1.22 -1.14 1.57 -1.11 1.56 -2.74 1.23 -0.85 1.88 -2.9 1.18 -0.86 1.88 -2.69 1.24 -0.63 2.24 6.34 3.6 2.45 1.86 5.6 1.26 4.16 1.65 113.87 -0.07 2.66 -1.65 2.06 0.12c-1,-2.33 -1.14,-1.5 2.14,-1.22l2.06 -0.33 1.75 -1.35 1.38 -0.02c-0.91,-2.14 -1.21,-1.54 1.35,-1.48l1.36 -0.01 1.08 -1.62 0.91 -0.18 -0.56 -3.31 -0.52 -0.8 -2.54 -1.65 -5.64 -6.02 -2.54 -1.59 -0.51 -1.19 -2.55 -1.71 -2.57 -3.01c-2.6,0 -1.71,0.56 -2.56,-1.82l-0.51 -1.19 -2.53 -1.53 -100.91 -0.04z"/>
   <path class="fil1" d="M434.54 272.64l-6.25 1.43 -1.75 1.34 -1.43 0c0.91,2.14 1.22,1.55 -1.34,1.49l-1.33 0.02 -1.08 1.61 -0.86 0.18 0.54 3.42 0.53 0.81 2.54 1.58 5.64 6.02c2.46,0 1.6,-0.54 2.54,1.67l0.52 1.15 2.54 1.65 5.64 6.03 2.54 1.61 100.87 -0.07 1.17 -1.55 1.11 -1.56 2.72 -1.25 0.85 -1.87 2.9 -1.19 0.86 -1.87 2.68 -1.25 1.2 -1.53 1.05 -1.59 2.82 -1.21 0.86 -1.87 2.9 -1.19 0.87 -1.88 -3.04 -7.05 -2.45 -1.87 -1.26 0c-2.62,0.19 -1.79,0.81 -2.75,-1.43l-1.63 0.17 -4.15 -1.66 -113.86 0.06 -2.71 1.65z"/>
   <path class="fil1" d="M225.87 494.52l-1.17 1.55 -1.11 1.57 -2.72 1.24 -0.86 1.87 -2.9 1.19 -0.86 1.88 -2.68 1.24 -1.19 1.53 -1.05 1.59 -2.83 1.21 -0.85 1.88 -2.91 1.18 -0.86 1.88 3.04 7.05 2.45 1.87 1.26 0c2.62,-0.18 1.79,-0.81 2.75,1.44l1.62 -0.17 4.16 1.65 113.86 -0.06 2.71 -1.65 6.25 -1.43 1.75 -1.34 1.43 0c-0.91,-2.14 -1.22,-1.55 1.34,-1.48l1.32 -0.03 1.09 -1.61 0.86 -0.18 -0.54 -3.42 -0.54 -0.81 -2.53 -1.58 -5.65 -6.02c-2.45,0 -1.59,0.54 -2.54,-1.66l-0.51 -1.16 -2.55 -1.65 -5.64 -6.03 -2.53 -1.61 -100.87 0.07z"/>
   <path class="fil1" d="M555.35 402.92l-0.86 1.87 -4.05 2.5 -0.88 1.86 -2.85 1.2 -0.85 1.88 -2.85 1.19 -0.91 1.87 -2.34 2.43 -0.66 2.13 0.5 1.2 -0.68 2.06 0.41 1.91c1.28,2.49 1.83,2.01 -0.7,2.01l0.53 1.26 -0.57 2.13 0.22 5.16c1.29,2.52 1.87,2.05 -0.66,2.05l0.52 1.24 -0.6 2.12 0.22 5.13c1.27,2.56 1.88,2.1 -0.62,2.1l0.49 1.21 -0.64 2.09 0.24 5.15 -0.59 2.12 0.51 1.23 -0.68 2.05 0.43 1.93c1.36,2.56 1.93,2.07 -0.67,2.07l0.48 1.16 -0.58 2.13 0.51 1.22 -0.68 2.05 0.38 1.88c1.29,2.51 1.86,2.03 -0.68,2.03l0.51 1.24 -0.57 2.13 0.22 5.16c1.27,2.51 1.85,2.03 -0.66,2.03l0.52 1.25 -0.9 1.71 0.67 1.56 2.38 1.62 0.51 1.18 2.55 1.68 5.64 6.01 2.54 1.55 0.51 1.22 2.55 1.74 2.57 3.01c2.56,0 1.67,-0.55 2.54,1.79l0.53 1.21c2.42,0 1.55,-0.52 2.5,1.71l1.74 -0.02 0.94 -1.71 1.05 -1.49 1.04 -1.51 1.03 -1.51 1.04 -1.5 1.05 -1.49 1.23 -1.49 0.06 -3.03 1.43 -1.48 -0.02 -3.03 0.96 -1.82 -0.48 -1.17 0.77 -1.99 -0.22 -5.15 0.57 -2.13 -0.52 -1.25 0.67 -2.04 -0.34 -1.85c-1.29,-2.51 -1.85,-2.03 0.67,-2.03l-0.54 -1.27 0.58 -2.12 -0.5 -1.19 0.67 -2.08 -0.39 -1.89c-1.27,-2.49 -1.83,-2.01 0.68,-2.01l-0.52 -1.27 0.58 -2.13 -0.2 -5.12c-1.25,-2.53 -1.85,-2.07 0.64,-2.07l-0.53 -1.25 0.63 -2.1 -0.24 -5.15c-1.24,-2.55 -1.86,-2.11 0.61,-2.11l-0.53 -1.25 0.66 -2.06 -0.22 -5.14 0.58 -2.13 -0.52 -1.24 0.69 -2.04 -0.4 -1.89c-1.31,-2.53 -1.87,-2.04 0.68,-2.04l-0.49 -1.21 0.57 -2.13 -0.5 -1.19 0.67 -2.08 -1.95 -5.47c-2.45,0 -1.59,0.54 -2.54,-1.66l-0.52 -1.15 -2.54 -1.64 -5.64 -6.04c-2.41,0 -1.57,0.53 -2.54,-1.61l-0.5 -1.17 -1.66 0.07 -2.89 1.1z"/>
   <path class="fil1" d="M413.86 284.48l-1.05 1.5 -0.93 1.74 -1.9 2.78 -1.33 1.48 -1.03 1.51 -1.15 1.55 -0.07 2.98 -1.22 1.62 0.5 1.18c0.99,2.27 1.47,1.79 -0.9,1.79l0.51 1.25 -0.62 2.09 0.21 5.13c1.24,2.57 1.88,2.12 -0.59,2.12l0.52 1.26 -0.66 2.05 0.21 5.13 -0.57 2.13 0.52 1.25 -0.69 2.04 0.39 1.89c1.32,2.52 1.88,2.04 -0.67,2.04l0.51 1.22 -0.58 2.14 0.49 1.17 -0.67 2.08 0.41 1.91c1.28,2.48 1.83,2 -0.7,2l0.51 1.25 -0.58 2.13 0.23 5.15c1.27,2.53 1.87,2.07 -0.64,2.07l0.53 1.26 -0.62 2.09 0.19 5.11c1.24,2.56 1.87,2.11 -0.6,2.11l0.52 1.24 -0.65 2.08 0.21 5.13 -0.57 2.13 0.53 1.27 -0.69 2.03 1.98 5.51c2.51,0 1.64,-0.54 2.54,1.74l0.52 1.16 2.54 1.56 5.64 6.03c2.47,0 1.62,-0.54 2.54,1.68l0.51 1.19 1.67 -0.13 2.86 -1.13 0.9 -1.87 4 -2.51 0.86 -1.87 2.91 -1.18 0.86 -1.88 2.77 -1.22 1.1 -1.58 1.18 -1.52 0.97 -1.24 0.68 -2.12 -0.23 -5.16c-1.29,-2.52 -1.88,-2.05 0.65,-2.05l-0.52 -1.25 0.6 -2.12 -0.16 -5.08c-1.23,-2.54 -1.86,-2.09 0.61,-2.09l-0.53 -1.26 0.64 -2.09 -0.23 -5.14 0.58 -2.13 -0.52 -1.26 0.68 -2.03 -0.42 -1.92c-1.36,-2.55 -1.92,-2.06 0.67,-2.06l-0.48 -1.18 0.57 -2.14 -0.5 -1.2 0.68 -2.06 -0.39 -1.89c-1.3,-2.5 -1.85,-2.02 0.68,-2.02l-0.5 -1.23 0.58 -2.13 -0.23 -5.16c-1.28,-2.51 -1.85,-2.04 0.66,-2.04l-0.53 -1.27 0.6 -2.1 -0.22 -5.15c-1.27,-2.54 -1.87,-2.08 0.63,-2.08l-0.53 -1.26 0.98 -1.61 -0.64 -1.54 -2.4 -1.56 -0.52 -1.17 -2.55 -1.74 -2.57 -3.02c-2.56,0 -1.68,0.55 -2.54,-1.79l-0.53 -1.22 -2.52 -1.47 -0.53 -1.21 -2.55 -1.79 -2.57 -3.03c-2.52,0 -1.65,0.55 -2.54,-1.73l-0.52 -1.19c-2.43,0 -1.53,0.5 -2.51,-1.8l-1.74 -0.01 -0.93 1.73z"/>
   <path class="fil1" d="M348.3 402.93l-0.91 1.87 -3.99 2.51 -0.86 1.87 -2.91 1.18 -0.86 1.88 -2.77 1.22 -1.1 1.58 -1.18 1.53 -0.97 1.23 -0.68 2.12 0.23 5.16c1.29,2.53 1.87,2.05 -0.66,2.05l0.53 1.26 -0.6 2.11 0.16 5.08c1.23,2.54 1.86,2.1 -0.61,2.1l0.53 1.25 -0.64 2.09 0.23 5.15 -0.58 2.12 0.52 1.26 -0.68 2.03 0.41 1.92c1.36,2.55 1.93,2.06 -0.67,2.06l0.49 1.18 -0.57 2.14 0.5 1.2 -0.68 2.06 0.39 1.89c1.29,2.5 1.85,2.02 -0.68,2.02l0.5 1.23 -0.58 2.13 0.23 5.16c1.28,2.51 1.85,2.04 -0.66,2.04l0.53 1.27 -0.6 2.11 0.22 5.14c1.26,2.54 1.87,2.08 -0.63,2.08l0.53 1.26 -0.98 1.61 0.64 1.55 2.4 1.55 0.52 1.17 2.55 1.74 2.57 3.03c2.56,0 1.68,-0.56 2.54,1.78l0.53 1.22 2.52 1.48 0.53 1.2 2.55 1.79 2.57 3.03c2.52,0 1.65,-0.55 2.54,1.74l0.52 1.18c2.43,0 1.52,-0.5 2.51,1.8l1.72 0 0.94 -1.73 1.05 -1.49 1.06 -1.5 1.02 -1.5 1.03 -1.52 1.04 -1.5 1.24 -1.49 0.14 -2.94 1.38 -1.55 -0.01 -3.02 0.99 -1.76 -0.51 -1.23 0.8 -1.93 -0.25 -5.17c-1.23,-2.55 -1.86,-2.1 0.61,-2.1l-0.53 -1.25 0.66 -2.07 -0.21 -5.13 0.57 -2.13 -0.52 -1.25 0.69 -2.03 -0.4 -1.9c-1.31,-2.52 -1.88,-2.04 0.68,-2.04l-0.49 -1.2 0.57 -2.13 -0.5 -1.19 0.67 -2.08 -0.4 -1.89c-1.27,-2.49 -1.83,-2.01 0.69,-2.01l-0.52 -1.27 0.59 -2.12 -0.23 -5.16c-1.27,-2.53 -1.87,-2.06 0.64,-2.06l-0.52 -1.25 0.61 -2.11 -0.2 -5.11c-1.23,-2.56 -1.86,-2.1 0.61,-2.1l-0.52 -1.25 0.65 -2.08 -0.21 -5.13 0.57 -2.12 -0.54 -1.28 0.7 -2.03 -1.98 -5.51c-2.51,0 -1.64,0.54 -2.54,-1.73l-0.52 -1.17 -2.54 -1.55 -5.64 -6.04c-2.47,0 -1.62,0.55 -2.54,-1.68l-0.52 -1.19 -1.66 0.13 -2.86 1.13z"/>
   <path class="fil1" d="M363.45 284.66l-2.86 1.21 -0.86 1.87 -4.06 2.49 -0.88 1.86 -2.84 1.21 -0.86 1.88 -2.84 1.2 -0.91 1.86 -4 2.51 -0.85 1.87 -2.89 1.2 -0.86 1.87 -0.69 2.53 -0.57 2.13 0.22 5.16c1.29,2.51 1.85,2.03 -0.67,2.03l0.5 1.24 -0.59 2.12 0.22 5.14c1.26,2.54 1.86,2.08 -0.63,2.08l0.53 1.25 -0.62 2.1 0.2 5.13 -0.59 2.11 0.54 1.28 -0.66 2.05 0.2 5.12 -0.58 2.12 0.52 1.25 -0.69 2.04 0.4 1.9c1.31,2.51 1.87,2.03 -0.68,2.03l0.5 1.21 -0.57 2.14 0.5 1.19 -0.67 2.07 0.4 1.91c1.29,2.5 1.84,2.02 -0.68,2.02l0.5 1.23 -0.58 2.13 0.23 5.16c1.22,2.43 1.76,1.95 -0.72,1.95l0.58 1.38 0.85 1.79 0.49 1.17 2.56 1.71 2.56 3c2.6,0 1.71,-0.56 2.56,1.82l0.52 1.19 2.53 1.53 0.52 1.19 2.55 1.76 4.99 0.22 0.85 -1.87 2.9 -1.19 0.86 -1.87 2.66 -1.25 1.19 -1.54 1.07 -1.58 2.81 -1.21 0.86 -1.88 2.87 -5.43 0.58 -2.13 -0.53 -1.26 0.69 -2.04 -0.42 -1.91c-1.35,-2.55 -1.92,-2.06 0.67,-2.06l-0.48 -1.18 0.57 -2.14 -0.5 -1.2 0.68 -2.05 -0.39 -1.89c-1.3,-2.51 -1.85,-2.02 0.68,-2.02l-0.5 -1.23 0.58 -2.14 -0.23 -5.15c-1.28,-2.52 -1.85,-2.04 0.66,-2.04l-0.52 -1.26 0.6 -2.11 -0.22 -5.15c-1.26,-2.54 -1.86,-2.08 0.63,-2.08l-0.54 -1.27 0.62 -2.09 -0.2 -5.12c-1.25,-2.57 -1.88,-2.12 0.59,-2.12l-0.52 -1.25 0.66 -2.06 -0.2 -5.12 0.57 -2.14 -0.52 -1.24 0.68 -2.04 -0.35 -1.85c-1.28,-2.51 -1.85,-2.03 0.67,-2.03l-0.54 -1.27 0.59 -2.12 -0.92 -1.66 1.16 -2.4 -5.94 -13.89 -3.55 -2.78 -1.29 -0.17 -0.86 1.87z"/>
   <path class="fil1" d="M439.4 383.67l-2.91 1.18 -0.86 1.88 -2.77 1.22 -1.09 1.58 -1.18 1.53 -2.69 1.25 -0.86 1.87 -2.88 1.2 -0.86 1.87 2.33 5.83c2.42,0 1.57,-0.54 2.54,1.62l0.51 1.16 2.55 1.69 5.64 6.05 2.89 1.36 29.32 -1.24 0.86 -1.87 2.71 -1.24 1.18 -1.54 1.08 -1.58 2.78 -1.22 0.86 -1.87 2.88 -1.2 0.86 -1.87 2.01 -1.47 -0.46 -3.68 -0.54 -0.65 -2.53 -1.5 -0.52 -1.19 -2.55 -1.78 -2.57 -3.06c-2.51,0 -1.63,0.54 -2.53,-1.75l-0.53 -1.19 -2.53 -1.53 -28.55 -1.38 -1.59 1.52z"/>
   <path class="fil1" d="M508.28 383.37l-0.86 1.88 -2.77 1.21 -1.14 1.57 -1.17 1.53 -2.67 1.26 -0.86 1.87 -2.89 1.19 -0.86 1.88 -2.05 1.45 0.48 3.77 0.54 0.58 2.54 1.59 0.51 1.18 2.55 1.72 2.56 3.01c2.61,0 1.72,-0.56 2.56,1.81l0.52 1.2 2.52 1.52 28.61 1.36 1.56 -1.53 2.88 -1.19 0.86 -1.88 2.74 -1.22 1.15 -1.56 1.1 -1.56 2.74 -1.24 0.85 -1.87 2.91 -1.19 0.85 -1.88 -2.34 -5.81 -2.53 -1.53 -0.52 -1.19 -2.55 -1.74 -2.57 -3.08c-2.52,0 -1.64,0.54 -2.52,-1.77l-0.55 -1.2 -2.84 -1.36 -29.34 1.22z"/>
   <polygon class="fil1" points="555.26,272.59 551.11,270.93 "/>
   <path class="fil1" d="M225.87 494.52l-1.17 1.55 -1.11 1.57 -2.72 1.24 -0.86 1.87 -2.9 1.19 -0.86 1.88 -2.68 1.24 -1.19 1.53 -1.05 1.59 -2.83 1.21 -0.85 1.88 -2.91 1.18 -0.86 1.88 3.04 7.05 2.45 1.87 1.26 0c2.62,-0.18 1.79,-0.81 2.75,1.44l1.62 -0.17 4.16 1.65 113.86 -0.06 2.71 -1.65 6.25 -1.43 1.75 -1.34 1.43 0c-0.91,-2.14 -1.22,-1.55 1.34,-1.48l1.32 -0.03 1.09 -1.61 0.86 -0.18 -0.54 -3.42 -0.54 -0.81 -2.53 -1.58 -5.65 -6.02c-2.45,0 -1.59,0.54 -2.54,-1.66l-0.51 -1.16 -2.55 -1.65 -5.64 -6.03 -2.53 -1.61 -100.87 0.07z"/>
  </g>
 </g>
</svg>
